<svg xmlns="http://www.w3.org/2000/svg" xmlns:xlink="http://www.w3.org/1999/xlink" width="979pt" height="1469pt" viewBox="0.00 0.00 979.00 1469.00">
<g id="graph0" class="graph" transform="scale(1 1) rotate(0) translate(4 1464.79)">
<title>ControUserFlow</title>
<polygon fill="#1a1a1a" stroke="none" points="-4,4 -4,-1464.79 975.01,-1464.79 975.01,4 -4,4"/>
<!-- Landing -->
<g id="node1" class="node">
<title>Landing</title>
<ellipse fill="#2a2a2a" stroke="#a1a1aa" cx="595.65" cy="-1442.79" rx="47.51" ry="18"/>
<text xml:space="preserve" text-anchor="middle" x="595.65" y="-1439.49" font-family="Inter" font-size="11.00" fill="#f5f5f5">Landing Page</text>
</g>
<!-- GetStarted -->
<g id="node2" class="node">
<title>GetStarted</title>
<path fill="#2a2a2a" stroke="#a1a1aa" d="M571.83,-1365.79C571.83,-1365.79 503.46,-1365.79 503.46,-1365.79 497.46,-1365.79 491.46,-1359.79 491.46,-1353.79 491.46,-1353.79 491.46,-1341.79 491.46,-1341.79 491.46,-1335.79 497.46,-1329.79 503.46,-1329.79 503.46,-1329.79 571.83,-1329.79 571.83,-1329.79 577.83,-1329.79 583.83,-1335.79 583.83,-1341.79 583.83,-1341.79 583.83,-1353.79 583.83,-1353.79 583.83,-1359.79 577.83,-1365.79 571.83,-1365.79"/>
<text xml:space="preserve" text-anchor="middle" x="537.65" y="-1344.49" font-family="Inter" font-size="11.00" fill="#f5f5f5">Click Get Started</text>
</g>
<!-- Landing&#45;&gt;GetStarted -->
<g id="edge1" class="edge">
<title>Landing-&gt;GetStarted</title>
<path fill="none" stroke="#f5f5f5" d="M565.99,-1428.36C565.99,-1428.36 565.99,-1377.79 565.99,-1377.79"/>
<polygon fill="#f5f5f5" stroke="#f5f5f5" points="569.49,-1377.79 565.99,-1367.79 562.49,-1377.79 569.49,-1377.79"/>
</g>
<!-- LoginHeader -->
<g id="node3" class="node">
<title>LoginHeader</title>
<path fill="#2a2a2a" stroke="#a1a1aa" d="M677.08,-1365.79C677.08,-1365.79 632.22,-1365.79 632.22,-1365.79 626.22,-1365.79 620.22,-1359.79 620.22,-1353.79 620.22,-1353.79 620.22,-1341.79 620.22,-1341.79 620.22,-1335.79 626.22,-1329.79 632.22,-1329.79 632.22,-1329.79 677.08,-1329.79 677.08,-1329.79 683.08,-1329.79 689.08,-1335.79 689.08,-1341.79 689.08,-1341.79 689.08,-1353.79 689.08,-1353.79 689.08,-1359.79 683.08,-1365.79 677.08,-1365.79"/>
<text xml:space="preserve" text-anchor="middle" x="654.65" y="-1344.49" font-family="Inter" font-size="11.00" fill="#f5f5f5">Click Login</text>
</g>
<!-- Landing&#45;&gt;LoginHeader -->
<g id="edge2" class="edge">
<title>Landing-&gt;LoginHeader</title>
<path fill="none" stroke="#f5f5f5" d="M631.69,-1430.76C631.69,-1430.76 631.69,-1377.75 631.69,-1377.75"/>
<polygon fill="#f5f5f5" stroke="#f5f5f5" points="635.19,-1377.75 631.69,-1367.75 628.19,-1377.75 635.19,-1377.75"/>
</g>
<!-- Auth -->
<g id="node4" class="node">
<title>Auth</title>
<path fill="#2a2a2a" stroke="#a1a1aa" d="M624.33,-1270.79C624.33,-1270.79 566.96,-1270.79 566.96,-1270.79 560.96,-1270.79 554.96,-1264.79 554.96,-1258.79 554.96,-1258.79 554.96,-1246.79 554.96,-1246.79 554.96,-1240.79 560.96,-1234.79 566.96,-1234.79 566.96,-1234.79 624.33,-1234.79 624.33,-1234.79 630.33,-1234.79 636.33,-1240.79 636.33,-1246.79 636.33,-1246.79 636.33,-1258.79 636.33,-1258.79 636.33,-1264.79 630.33,-1270.79 624.33,-1270.79"/>
<text xml:space="preserve" text-anchor="middle" x="595.65" y="-1249.49" font-family="Inter" font-size="11.00" fill="#f5f5f5">Authentication</text>
</g>
<!-- GetStarted&#45;&gt;Auth -->
<g id="edge3" class="edge">
<title>GetStarted-&gt;Auth</title>
<path fill="none" stroke="#f5f5f5" d="M569.4,-1329.47C569.4,-1329.47 569.4,-1282.56 569.4,-1282.56"/>
<polygon fill="#f5f5f5" stroke="#f5f5f5" points="572.9,-1282.56 569.4,-1272.56 565.9,-1282.56 572.9,-1282.56"/>
</g>
<!-- LoginHeader&#45;&gt;Auth -->
<g id="edge4" class="edge">
<title>LoginHeader-&gt;Auth</title>
<path fill="none" stroke="#f5f5f5" d="M628.28,-1329.47C628.28,-1329.47 628.28,-1282.56 628.28,-1282.56"/>
<polygon fill="#f5f5f5" stroke="#f5f5f5" points="631.78,-1282.56 628.28,-1272.56 624.78,-1282.56 631.78,-1282.56"/>
</g>
<!-- HasAccount -->
<g id="node5" class="node">
<title>HasAccount</title>
<path fill="#3a3a3a" stroke="#a1a1aa" d="M492.04,-1172.73C492.04,-1172.73 447.01,-1160.85 447.01,-1160.85 441.2,-1159.32 441.2,-1156.26 447.01,-1154.73 447.01,-1154.73 492.04,-1142.85 492.04,-1142.85 497.85,-1141.32 509.45,-1141.32 515.25,-1142.85 515.25,-1142.85 560.29,-1154.73 560.29,-1154.73 566.09,-1156.26 566.09,-1159.32 560.29,-1160.85 560.29,-1160.85 515.25,-1172.73 515.25,-1172.73 509.45,-1174.26 497.85,-1174.26 492.04,-1172.73"/>
<text xml:space="preserve" text-anchor="middle" x="503.65" y="-1154.49" font-family="Inter" font-size="11.00" fill="#f5f5f5">Has Account?</text>
</g>
<!-- Auth&#45;&gt;HasAccount -->
<g id="edge5" class="edge">
<title>Auth-&gt;HasAccount</title>
<path fill="none" stroke="#f5f5f5" d="M563.43,-1234.47C563.43,-1234.47 563.43,-1172.02 563.43,-1172.02"/>
<polygon fill="#f5f5f5" stroke="#f5f5f5" points="566.93,-1172.02 563.43,-1162.02 559.93,-1172.02 566.93,-1172.02"/>
</g>
<!-- Signup -->
<g id="node6" class="node">
<title>Signup</title>
<path fill="#2a2a2a" stroke="#a1a1aa" d="M471.65,-1069.79C471.65,-1069.79 441.65,-1069.79 441.65,-1069.79 435.65,-1069.79 429.65,-1063.79 429.65,-1057.79 429.65,-1057.79 429.65,-1045.79 429.65,-1045.79 429.65,-1039.79 435.65,-1033.79 441.65,-1033.79 441.65,-1033.79 471.65,-1033.79 471.65,-1033.79 477.65,-1033.79 483.65,-1039.79 483.65,-1045.79 483.65,-1045.79 483.65,-1057.79 483.65,-1057.79 483.65,-1063.79 477.65,-1069.79 471.65,-1069.79"/>
<text xml:space="preserve" text-anchor="middle" x="456.65" y="-1048.49" font-family="Inter" font-size="11.00" fill="#f5f5f5">Sign Up</text>
</g>
<!-- HasAccount&#45;&gt;Signup -->
<g id="edge7" class="edge">
<title>HasAccount-&gt;Signup</title>
<path fill="none" stroke="#f5f5f5" d="M459.52,-1151.16C459.52,-1151.16 459.52,-1081.67 459.52,-1081.67"/>
<polygon fill="#f5f5f5" stroke="#f5f5f5" points="463.02,-1081.67 459.52,-1071.67 456.02,-1081.67 463.02,-1081.67"/>
<text xml:space="preserve" text-anchor="middle" x="485.76" y="-1101.79" font-family="Inter" font-size="10.00" fill="#f5f5f5">No</text>
</g>
<!-- Verify -->
<g id="node7" class="node">
<title>Verify</title>
<path fill="#2a2a2a" stroke="#a1a1aa" d="M592.43,-974.79C592.43,-974.79 518.87,-974.79 518.87,-974.79 512.87,-974.79 506.87,-968.79 506.87,-962.79 506.87,-962.79 506.87,-950.79 506.87,-950.79 506.87,-944.79 512.87,-938.79 518.87,-938.79 518.87,-938.79 592.43,-938.79 592.43,-938.79 598.43,-938.79 604.43,-944.79 604.43,-950.79 604.43,-950.79 604.43,-962.79 604.43,-962.79 604.43,-968.79 598.43,-974.79 592.43,-974.79"/>
<text xml:space="preserve" text-anchor="middle" x="555.65" y="-953.49" font-family="Inter" font-size="11.00" fill="#f5f5f5">Verify Credentials</text>
</g>
<!-- HasAccount&#45;&gt;Verify -->
<g id="edge6" class="edge">
<title>HasAccount-&gt;Verify</title>
<path fill="none" stroke="#f5f5f5" d="M539.38,-1148.89C539.38,-1148.89 539.38,-986.55 539.38,-986.55"/>
<polygon fill="#f5f5f5" stroke="#f5f5f5" points="542.88,-986.55 539.38,-976.55 535.88,-986.55 542.88,-986.55"/>
<text xml:space="preserve" text-anchor="middle" x="563.42" y="-1048.79" font-family="Inter" font-size="10.00" fill="#f5f5f5">Yes</text>
</g>
<!-- Signup&#45;&gt;Verify -->
<g id="edge8" class="edge">
<title>Signup-&gt;Verify</title>
<path fill="none" stroke="#f5f5f5" d="M456.24,-1033.51C456.24,-1005.97 456.24,-957 456.24,-957 456.24,-957 495.01,-957 495.01,-957"/>
<polygon fill="#f5f5f5" stroke="#f5f5f5" points="495.01,-960.5 505.01,-957 495.01,-953.5 495.01,-960.5"/>
</g>
<!-- Verify&#45;&gt;Auth -->
<g id="edge10" class="edge">
<title>Verify-&gt;Auth</title>
<path fill="none" stroke="#f5f5f5" d="M588.16,-974.86C588.16,-974.86 588.16,-1223.06 588.16,-1223.06"/>
<polygon fill="#f5f5f5" stroke="#f5f5f5" points="584.66,-1223.06 588.16,-1233.06 591.66,-1223.06 584.66,-1223.06"/>
<text xml:space="preserve" text-anchor="middle" x="637.2" y="-1101.79" font-family="Inter" font-size="10.00" fill="#f5f5f5">Error</text>
</g>
<!-- Dashboard -->
<g id="node8" class="node">
<title>Dashboard</title>
<path fill="#2a2a2a" stroke="#a1a1aa" d="M588.46,-868.79C588.46,-868.79 522.84,-868.79 522.84,-868.79 516.84,-868.79 510.84,-862.79 510.84,-856.79 510.84,-856.79 510.84,-844.79 510.84,-844.79 510.84,-838.79 516.84,-832.79 522.84,-832.79 522.84,-832.79 588.46,-832.79 588.46,-832.79 594.46,-832.79 600.46,-838.79 600.46,-844.79 600.46,-844.79 600.46,-856.79 600.46,-856.79 600.46,-862.79 594.46,-868.79 588.46,-868.79"/>
<text xml:space="preserve" text-anchor="middle" x="555.65" y="-847.49" font-family="Inter" font-size="11.00" fill="#f5f5f5">Main Dashboard</text>
</g>
<!-- Verify&#45;&gt;Dashboard -->
<g id="edge9" class="edge">
<title>Verify-&gt;Dashboard</title>
<path fill="none" stroke="#f5f5f5" d="M555.65,-938.32C555.65,-938.32 555.65,-880.55 555.65,-880.55"/>
<polygon fill="#f5f5f5" stroke="#f5f5f5" points="559.15,-880.55 555.65,-870.55 552.15,-880.55 559.15,-880.55"/>
<text xml:space="preserve" text-anchor="middle" x="571.48" y="-900.79" font-family="Inter" font-size="10.00" fill="#f5f5f5">Success</text>
</g>
<!-- TasksBtn -->
<g id="node9" class="node">
<title>TasksBtn</title>
<path fill="#2a2a2a" stroke="#a1a1aa" d="M258.77,-773.79C258.77,-773.79 214.53,-773.79 214.53,-773.79 208.53,-773.79 202.53,-767.79 202.53,-761.79 202.53,-761.79 202.53,-749.79 202.53,-749.79 202.53,-743.79 208.53,-737.79 214.53,-737.79 214.53,-737.79 258.77,-737.79 258.77,-737.79 264.77,-737.79 270.77,-743.79 270.77,-749.79 270.77,-749.79 270.77,-761.79 270.77,-761.79 270.77,-767.79 264.77,-773.79 258.77,-773.79"/>
<text xml:space="preserve" text-anchor="middle" x="236.65" y="-752.49" font-family="Inter" font-size="11.00" fill="#f5f5f5">Open Tasks</text>
</g>
<!-- Dashboard&#45;&gt;TasksBtn -->
<g id="edge11" class="edge">
<title>Dashboard-&gt;TasksBtn</title>
<path fill="none" stroke="#f5f5f5" d="M510.62,-857C422.69,-857 236.65,-857 236.65,-857 236.65,-857 236.65,-785.4 236.65,-785.4"/>
<polygon fill="#f5f5f5" stroke="#f5f5f5" points="240.15,-785.4 236.65,-775.4 233.15,-785.4 240.15,-785.4"/>
</g>
<!-- InventoryBtn -->
<g id="node10" class="node">
<title>InventoryBtn</title>
<path fill="#2a2a2a" stroke="#a1a1aa" d="M433.32,-773.79C433.32,-773.79 371.98,-773.79 371.98,-773.79 365.98,-773.79 359.98,-767.79 359.98,-761.79 359.98,-761.79 359.98,-749.79 359.98,-749.79 359.98,-743.79 365.98,-737.79 371.98,-737.79 371.98,-737.79 433.32,-737.79 433.32,-737.79 439.32,-737.79 445.32,-743.79 445.32,-749.79 445.32,-749.79 445.32,-761.79 445.32,-761.79 445.32,-767.79 439.32,-773.79 433.32,-773.79"/>
<text xml:space="preserve" text-anchor="middle" x="402.65" y="-752.49" font-family="Inter" font-size="11.00" fill="#f5f5f5">Open Inventory</text>
</g>
<!-- Dashboard&#45;&gt;InventoryBtn -->
<g id="edge12" class="edge">
<title>Dashboard-&gt;InventoryBtn</title>
<path fill="none" stroke="#f5f5f5" d="M510.64,-845C477.24,-845 437.48,-845 437.48,-845 437.48,-845 437.48,-785.79 437.48,-785.79"/>
<polygon fill="#f5f5f5" stroke="#f5f5f5" points="440.98,-785.79 437.48,-775.79 433.98,-785.79 440.98,-785.79"/>
</g>
<!-- LeadBtn -->
<g id="node11" class="node">
<title>LeadBtn</title>
<path fill="#2a2a2a" stroke="#a1a1aa" d="M596.24,-773.79C596.24,-773.79 515.05,-773.79 515.05,-773.79 509.05,-773.79 503.05,-767.79 503.05,-761.79 503.05,-761.79 503.05,-749.79 503.05,-749.79 503.05,-743.79 509.05,-737.79 515.05,-737.79 515.05,-737.79 596.24,-737.79 596.24,-737.79 602.24,-737.79 608.24,-743.79 608.24,-749.79 608.24,-749.79 608.24,-761.79 608.24,-761.79 608.24,-767.79 602.24,-773.79 596.24,-773.79"/>
<text xml:space="preserve" text-anchor="middle" x="555.65" y="-752.49" font-family="Inter" font-size="11.00" fill="#f5f5f5">Open Lead Magnets</text>
</g>
<!-- Dashboard&#45;&gt;LeadBtn -->
<g id="edge13" class="edge">
<title>Dashboard-&gt;LeadBtn</title>
<path fill="none" stroke="#f5f5f5" d="M555.65,-832.47C555.65,-832.47 555.65,-785.56 555.65,-785.56"/>
<polygon fill="#f5f5f5" stroke="#f5f5f5" points="559.15,-785.56 555.65,-775.56 552.15,-785.56 559.15,-785.56"/>
</g>
<!-- WriterBtn -->
<g id="node12" class="node">
<title>WriterBtn</title>
<path fill="#2a2a2a" stroke="#a1a1aa" d="M707.29,-773.79C707.29,-773.79 660.01,-773.79 660.01,-773.79 654.01,-773.79 648.01,-767.79 648.01,-761.79 648.01,-761.79 648.01,-749.79 648.01,-749.79 648.01,-743.79 654.01,-737.79 660.01,-737.79 660.01,-737.79 707.29,-737.79 707.29,-737.79 713.29,-737.79 719.29,-743.79 719.29,-749.79 719.29,-749.79 719.29,-761.79 719.29,-761.79 719.29,-767.79 713.29,-773.79 707.29,-773.79"/>
<text xml:space="preserve" text-anchor="middle" x="683.65" y="-752.49" font-family="Inter" font-size="11.00" fill="#f5f5f5">Open Writer</text>
</g>
<!-- Dashboard&#45;&gt;WriterBtn -->
<g id="edge14" class="edge">
<title>Dashboard-&gt;WriterBtn</title>
<path fill="none" stroke="#f5f5f5" d="M600.92,-845C632.32,-845 668.54,-845 668.54,-845 668.54,-845 668.54,-785.79 668.54,-785.79"/>
<polygon fill="#f5f5f5" stroke="#f5f5f5" points="672.04,-785.79 668.54,-775.79 665.04,-785.79 672.04,-785.79"/>
</g>
<!-- ProjectsBtn -->
<g id="node13" class="node">
<title>ProjectsBtn</title>
<path fill="#2a2a2a" stroke="#a1a1aa" d="M826.66,-773.79C826.66,-773.79 772.64,-773.79 772.64,-773.79 766.64,-773.79 760.64,-767.79 760.64,-761.79 760.64,-761.79 760.64,-749.79 760.64,-749.79 760.64,-743.79 766.64,-737.79 772.64,-737.79 772.64,-737.79 826.66,-737.79 826.66,-737.79 832.66,-737.79 838.66,-743.79 838.66,-749.79 838.66,-749.79 838.66,-761.79 838.66,-761.79 838.66,-767.79 832.66,-773.79 826.66,-773.79"/>
<text xml:space="preserve" text-anchor="middle" x="799.65" y="-752.49" font-family="Inter" font-size="11.00" fill="#f5f5f5">Open Projects</text>
</g>
<!-- Dashboard&#45;&gt;ProjectsBtn -->
<g id="edge15" class="edge">
<title>Dashboard-&gt;ProjectsBtn</title>
<path fill="none" stroke="#f5f5f5" d="M600.69,-857C671.19,-857 799.65,-857 799.65,-857 799.65,-857 799.65,-785.4 799.65,-785.4"/>
<polygon fill="#f5f5f5" stroke="#f5f5f5" points="803.15,-785.4 799.65,-775.4 796.15,-785.4 803.15,-785.4"/>
</g>
<!-- TasksHub -->
<g id="node14" class="node">
<title>TasksHub</title>
<path fill="#2a2a2a" stroke="#a1a1aa" d="M165.33,-678.79C165.33,-678.79 125.97,-678.79 125.97,-678.79 119.97,-678.79 113.97,-672.79 113.97,-666.79 113.97,-666.79 113.97,-654.79 113.97,-654.79 113.97,-648.79 119.97,-642.79 125.97,-642.79 125.97,-642.79 165.33,-642.79 165.33,-642.79 171.33,-642.79 177.33,-648.79 177.33,-654.79 177.33,-654.79 177.33,-666.79 177.33,-666.79 177.33,-672.79 171.33,-678.79 165.33,-678.79"/>
<text xml:space="preserve" text-anchor="middle" x="145.65" y="-657.49" font-family="Inter" font-size="11.00" fill="#f5f5f5">Tasks Hub</text>
</g>
<!-- TasksBtn&#45;&gt;TasksHub -->
<g id="edge16" class="edge">
<title>TasksBtn-&gt;TasksHub</title>
<path fill="none" stroke="#f5f5f5" d="M213.94,-737.51C213.94,-709.97 213.94,-661 213.94,-661 213.94,-661 189.31,-661 189.31,-661"/>
<polygon fill="#f5f5f5" stroke="#f5f5f5" points="189.31,-657.5 179.31,-661 189.31,-664.5 189.31,-657.5"/>
</g>
<!-- InventoryHub -->
<g id="node19" class="node">
<title>InventoryHub</title>
<path fill="#2a2a2a" stroke="#a1a1aa" d="M414.9,-678.79C414.9,-678.79 344.4,-678.79 344.4,-678.79 338.4,-678.79 332.4,-672.79 332.4,-666.79 332.4,-666.79 332.4,-654.79 332.4,-654.79 332.4,-648.79 338.4,-642.79 344.4,-642.79 344.4,-642.79 414.9,-642.79 414.9,-642.79 420.9,-642.79 426.9,-648.79 426.9,-654.79 426.9,-654.79 426.9,-666.79 426.9,-666.79 426.9,-672.79 420.9,-678.79 414.9,-678.79"/>
<text xml:space="preserve" text-anchor="middle" x="379.65" y="-657.49" font-family="Inter" font-size="11.00" fill="#f5f5f5">Inventory Library</text>
</g>
<!-- InventoryBtn&#45;&gt;InventoryHub -->
<g id="edge21" class="edge">
<title>InventoryBtn-&gt;InventoryHub</title>
<path fill="none" stroke="#f5f5f5" d="M393.44,-737.47C393.44,-737.47 393.44,-690.56 393.44,-690.56"/>
<polygon fill="#f5f5f5" stroke="#f5f5f5" points="396.94,-690.56 393.44,-680.56 389.94,-690.56 396.94,-690.56"/>
</g>
<!-- LeadHub -->
<g id="node26" class="node">
<title>LeadHub</title>
<path fill="#2a2a2a" stroke="#a1a1aa" d="M593.8,-678.79C593.8,-678.79 517.49,-678.79 517.49,-678.79 511.49,-678.79 505.49,-672.79 505.49,-666.79 505.49,-666.79 505.49,-654.79 505.49,-654.79 505.49,-648.79 511.49,-642.79 517.49,-642.79 517.49,-642.79 593.8,-642.79 593.8,-642.79 599.8,-642.79 605.8,-648.79 605.8,-654.79 605.8,-654.79 605.8,-666.79 605.8,-666.79 605.8,-672.79 599.8,-678.79 593.8,-678.79"/>
<text xml:space="preserve" text-anchor="middle" x="555.65" y="-657.49" font-family="Inter" font-size="11.00" fill="#f5f5f5">Lead Magnets Hub</text>
</g>
<!-- LeadBtn&#45;&gt;LeadHub -->
<g id="edge31" class="edge">
<title>LeadBtn-&gt;LeadHub</title>
<path fill="none" stroke="#f5f5f5" d="M555.65,-737.47C555.65,-737.47 555.65,-690.56 555.65,-690.56"/>
<polygon fill="#f5f5f5" stroke="#f5f5f5" points="559.15,-690.56 555.65,-680.56 552.15,-690.56 559.15,-690.56"/>
</g>
<!-- WriterHub -->
<g id="node32" class="node">
<title>WriterHub</title>
<path fill="#2a2a2a" stroke="#a1a1aa" d="M720.61,-678.79C720.61,-678.79 654.68,-678.79 654.68,-678.79 648.68,-678.79 642.68,-672.79 642.68,-666.79 642.68,-666.79 642.68,-654.79 642.68,-654.79 642.68,-648.79 648.68,-642.79 654.68,-642.79 654.68,-642.79 720.61,-642.79 720.61,-642.79 726.61,-642.79 732.61,-648.79 732.61,-654.79 732.61,-654.79 732.61,-666.79 732.61,-666.79 732.61,-672.79 726.61,-678.79 720.61,-678.79"/>
<text xml:space="preserve" text-anchor="middle" x="687.65" y="-657.49" font-family="Inter" font-size="11.00" fill="#f5f5f5">Rich Text Editor</text>
</g>
<!-- WriterBtn&#45;&gt;WriterHub -->
<g id="edge37" class="edge">
<title>WriterBtn-&gt;WriterHub</title>
<path fill="none" stroke="#f5f5f5" d="M683.65,-737.47C683.65,-737.47 683.65,-690.56 683.65,-690.56"/>
<polygon fill="#f5f5f5" stroke="#f5f5f5" points="687.15,-690.56 683.65,-680.56 680.15,-690.56 687.15,-690.56"/>
</g>
<!-- ProjectsHub -->
<g id="node38" class="node">
<title>ProjectsHub</title>
<path fill="#2a2a2a" stroke="#a1a1aa" d="M830.21,-678.79C830.21,-678.79 781.08,-678.79 781.08,-678.79 775.08,-678.79 769.08,-672.79 769.08,-666.79 769.08,-666.79 769.08,-654.79 769.08,-654.79 769.08,-648.79 775.08,-642.79 781.08,-642.79 781.08,-642.79 830.21,-642.79 830.21,-642.79 836.21,-642.79 842.21,-648.79 842.21,-654.79 842.21,-654.79 842.21,-666.79 842.21,-666.79 842.21,-672.79 836.21,-678.79 830.21,-678.79"/>
<text xml:space="preserve" text-anchor="middle" x="805.65" y="-657.49" font-family="Inter" font-size="11.00" fill="#f5f5f5">Projects Hub</text>
</g>
<!-- ProjectsBtn&#45;&gt;ProjectsHub -->
<g id="edge43" class="edge">
<title>ProjectsBtn-&gt;ProjectsHub</title>
<path fill="none" stroke="#f5f5f5" d="M803.87,-737.47C803.87,-737.47 803.87,-690.56 803.87,-690.56"/>
<polygon fill="#f5f5f5" stroke="#f5f5f5" points="807.37,-690.56 803.87,-680.56 800.37,-690.56 807.37,-690.56"/>
</g>
<!-- CreateTask -->
<g id="node15" class="node">
<title>CreateTask</title>
<path fill="#2a2a2a" stroke="#a1a1aa" d="M66.07,-583.79C66.07,-583.79 21.23,-583.79 21.23,-583.79 15.23,-583.79 9.23,-577.79 9.23,-571.79 9.23,-571.79 9.23,-559.79 9.23,-559.79 9.23,-553.79 15.23,-547.79 21.23,-547.79 21.23,-547.79 66.07,-547.79 66.07,-547.79 72.07,-547.79 78.07,-553.79 78.07,-559.79 78.07,-559.79 78.07,-571.79 78.07,-571.79 78.07,-577.79 72.07,-583.79 66.07,-583.79"/>
<text xml:space="preserve" text-anchor="middle" x="43.65" y="-562.49" font-family="Inter" font-size="11.00" fill="#f5f5f5">Create Task</text>
</g>
<!-- TasksHub&#45;&gt;CreateTask -->
<g id="edge17" class="edge">
<title>TasksHub-&gt;CreateTask</title>
<path fill="none" stroke="#f5f5f5" d="M113.65,-661C83.74,-661 43.65,-661 43.65,-661 43.65,-661 43.65,-595.66 43.65,-595.66"/>
<polygon fill="#f5f5f5" stroke="#f5f5f5" points="47.15,-595.66 43.65,-585.66 40.15,-595.66 47.15,-595.66"/>
</g>
<!-- ViewTask -->
<g id="node16" class="node">
<title>ViewTask</title>
<path fill="#2a2a2a" stroke="#a1a1aa" d="M165.63,-583.79C165.63,-583.79 125.67,-583.79 125.67,-583.79 119.67,-583.79 113.67,-577.79 113.67,-571.79 113.67,-571.79 113.67,-559.79 113.67,-559.79 113.67,-553.79 119.67,-547.79 125.67,-547.79 125.67,-547.79 165.63,-547.79 165.63,-547.79 171.63,-547.79 177.63,-553.79 177.63,-559.79 177.63,-559.79 177.63,-571.79 177.63,-571.79 177.63,-577.79 171.63,-583.79 165.63,-583.79"/>
<text xml:space="preserve" text-anchor="middle" x="145.65" y="-562.49" font-family="Inter" font-size="11.00" fill="#f5f5f5">View Task</text>
</g>
<!-- TasksHub&#45;&gt;ViewTask -->
<g id="edge18" class="edge">
<title>TasksHub-&gt;ViewTask</title>
<path fill="none" stroke="#f5f5f5" d="M145.65,-642.47C145.65,-642.47 145.65,-595.56 145.65,-595.56"/>
<polygon fill="#f5f5f5" stroke="#f5f5f5" points="149.15,-595.56 145.65,-585.56 142.15,-595.56 149.15,-595.56"/>
</g>
<!-- Subtasks -->
<g id="node17" class="node">
<title>Subtasks</title>
<path fill="#2a2a2a" stroke="#a1a1aa" d="M81.3,-477.79C81.3,-477.79 12,-477.79 12,-477.79 6,-477.79 0,-471.79 0,-465.79 0,-465.79 0,-453.79 0,-453.79 0,-447.79 6,-441.79 12,-441.79 12,-441.79 81.3,-441.79 81.3,-441.79 87.3,-441.79 93.3,-447.79 93.3,-453.79 93.3,-453.79 93.3,-465.79 93.3,-465.79 93.3,-471.79 87.3,-477.79 81.3,-477.79"/>
<text xml:space="preserve" text-anchor="middle" x="46.65" y="-456.49" font-family="Inter" font-size="11.00" fill="#f5f5f5">Manage Subtasks</text>
</g>
<!-- ViewTask&#45;&gt;Subtasks -->
<g id="edge19" class="edge">
<title>ViewTask-&gt;Subtasks</title>
<path fill="none" stroke="#f5f5f5" d="M113.21,-566C99.08,-566 85.68,-566 85.68,-566 85.68,-566 85.68,-489.32 85.68,-489.32"/>
<polygon fill="#f5f5f5" stroke="#f5f5f5" points="89.18,-489.32 85.68,-479.32 82.18,-489.32 89.18,-489.32"/>
</g>
<!-- SaveTasks -->
<g id="node18" class="node">
<title>SaveTasks</title>
<path fill="#2a2a2a" stroke="#a1a1aa" d="M156.55,-282.79C156.55,-282.79 114.75,-282.79 114.75,-282.79 108.75,-282.79 102.75,-276.79 102.75,-270.79 102.75,-270.79 102.75,-258.79 102.75,-258.79 102.75,-252.79 108.75,-246.79 114.75,-246.79 114.75,-246.79 156.55,-246.79 156.55,-246.79 162.55,-246.79 168.55,-252.79 168.55,-258.79 168.55,-258.79 168.55,-270.79 168.55,-270.79 168.55,-276.79 162.55,-282.79 156.55,-282.79"/>
<text xml:space="preserve" text-anchor="middle" x="135.65" y="-261.49" font-family="Inter" font-size="11.00" fill="#f5f5f5">Save Tasks</text>
</g>
<!-- Subtasks&#45;&gt;SaveTasks -->
<g id="edge20" class="edge">
<title>Subtasks-&gt;SaveTasks</title>
<path fill="none" stroke="#f5f5f5" d="M93.62,-460C102.05,-460 108.21,-460 108.21,-460 108.21,-460 108.21,-294.67 108.21,-294.67"/>
<polygon fill="#f5f5f5" stroke="#f5f5f5" points="111.71,-294.67 108.21,-284.67 104.71,-294.67 111.71,-294.67"/>
</g>
<!-- Saved -->
<g id="node42" class="node">
<title>Saved</title>
<ellipse fill="#2a2a2a" stroke="#a1a1aa" cx="517.65" cy="-45.84" rx="41.84" ry="41.84"/>
<ellipse fill="none" stroke="#a1a1aa" cx="517.65" cy="-45.84" rx="45.84" ry="45.84"/>
<text xml:space="preserve" text-anchor="middle" x="517.65" y="-42.54" font-family="Inter" font-size="11.00" fill="#f5f5f5">State Saved</text>
</g>
<!-- SaveTasks&#45;&gt;Saved -->
<g id="edge47" class="edge">
<title>SaveTasks-&gt;Saved</title>
<path fill="none" stroke="#f5f5f5" d="M168.9,-265C255.71,-265 482.46,-265 482.46,-265 482.46,-265 482.46,-87.36 482.46,-87.36"/>
<polygon fill="#f5f5f5" stroke="#f5f5f5" points="485.96,-87.36 482.46,-77.36 478.96,-87.36 485.96,-87.36"/>
</g>
<!-- Category -->
<g id="node20" class="node">
<title>Category</title>
<path fill="#3a3a3a" stroke="#a1a1aa" d="M324.98,-580.99C324.98,-580.99 273.12,-568.58 273.12,-568.58 267.29,-567.18 267.29,-564.39 273.12,-562.99 273.12,-562.99 324.98,-550.58 324.98,-550.58 330.81,-549.18 342.48,-549.18 348.32,-550.58 348.32,-550.58 400.17,-562.99 400.17,-562.99 406.01,-564.39 406.01,-567.18 400.17,-568.58 400.17,-568.58 348.32,-580.99 348.32,-580.99 342.48,-582.39 330.81,-582.39 324.98,-580.99"/>
<text xml:space="preserve" text-anchor="middle" x="336.65" y="-562.49" font-family="Inter" font-size="11.00" fill="#f5f5f5">Select Category</text>
</g>
<!-- InventoryHub&#45;&gt;Category -->
<g id="edge22" class="edge">
<title>InventoryHub-&gt;Category</title>
<path fill="none" stroke="#f5f5f5" d="M372.12,-642.47C372.12,-642.47 372.12,-586.87 372.12,-586.87"/>
<polygon fill="#f5f5f5" stroke="#f5f5f5" points="375.62,-586.87 372.12,-576.87 368.62,-586.87 375.62,-586.87"/>
</g>
<!-- Hooks -->
<g id="node21" class="node">
<title>Hooks</title>
<path fill="#2a2a2a" stroke="#a1a1aa" d="M171.65,-477.79C171.65,-477.79 141.65,-477.79 141.65,-477.79 135.65,-477.79 129.65,-471.79 129.65,-465.79 129.65,-465.79 129.65,-453.79 129.65,-453.79 129.65,-447.79 135.65,-441.79 141.65,-441.79 141.65,-441.79 171.65,-441.79 171.65,-441.79 177.65,-441.79 183.65,-447.79 183.65,-453.79 183.65,-453.79 183.65,-465.79 183.65,-465.79 183.65,-471.79 177.65,-477.79 171.65,-477.79"/>
<text xml:space="preserve" text-anchor="middle" x="156.65" y="-456.49" font-family="Inter" font-size="11.00" fill="#f5f5f5">Hooks</text>
</g>
<!-- Category&#45;&gt;Hooks -->
<g id="edge23" class="edge">
<title>Category-&gt;Hooks</title>
<path fill="none" stroke="#f5f5f5" d="M260.47,-566C232.81,-566 208.23,-566 208.23,-566 208.23,-566 208.23,-460 208.23,-460 208.23,-460 195.47,-460 195.47,-460"/>
<polygon fill="#f5f5f5" stroke="#f5f5f5" points="195.47,-456.5 185.47,-460 195.47,-463.5 195.47,-456.5"/>
<text xml:space="preserve" text-anchor="middle" x="187.7" y="-509.79" font-family="Inter" font-size="10.00" fill="#f5f5f5">Hooks</text>
</g>
<!-- CTAs -->
<g id="node22" class="node">
<title>CTAs</title>
<path fill="#2a2a2a" stroke="#a1a1aa" d="M261.65,-477.79C261.65,-477.79 231.65,-477.79 231.65,-477.79 225.65,-477.79 219.65,-471.79 219.65,-465.79 219.65,-465.79 219.65,-453.79 219.65,-453.79 219.65,-447.79 225.65,-441.79 231.65,-441.79 231.65,-441.79 261.65,-441.79 261.65,-441.79 267.65,-441.79 273.65,-447.79 273.65,-453.79 273.65,-453.79 273.65,-465.79 273.65,-465.79 273.65,-471.79 267.65,-477.79 261.65,-477.79"/>
<text xml:space="preserve" text-anchor="middle" x="246.65" y="-456.49" font-family="Inter" font-size="11.00" fill="#f5f5f5">CTAs</text>
</g>
<!-- Category&#45;&gt;CTAs -->
<g id="edge24" class="edge">
<title>Category-&gt;CTAs</title>
<path fill="none" stroke="#f5f5f5" d="M267.55,-563.95C267.55,-563.95 267.55,-489.42 267.55,-489.42"/>
<polygon fill="#f5f5f5" stroke="#f5f5f5" points="271.05,-489.42 267.55,-479.42 264.05,-489.42 271.05,-489.42"/>
<text xml:space="preserve" text-anchor="middle" x="271.59" y="-509.79" font-family="Inter" font-size="10.00" fill="#f5f5f5">CTAs</text>
</g>
<!-- Offers -->
<g id="node23" class="node">
<title>Offers</title>
<path fill="#2a2a2a" stroke="#a1a1aa" d="M351.65,-477.79C351.65,-477.79 321.65,-477.79 321.65,-477.79 315.65,-477.79 309.65,-471.79 309.65,-465.79 309.65,-465.79 309.65,-453.79 309.65,-453.79 309.65,-447.79 315.65,-441.79 321.65,-441.79 321.65,-441.79 351.65,-441.79 351.65,-441.79 357.65,-441.79 363.65,-447.79 363.65,-453.79 363.65,-453.79 363.65,-465.79 363.65,-465.79 363.65,-471.79 357.65,-477.79 351.65,-477.79"/>
<text xml:space="preserve" text-anchor="middle" x="336.65" y="-456.49" font-family="Inter" font-size="11.00" fill="#f5f5f5">Offers</text>
</g>
<!-- Category&#45;&gt;Offers -->
<g id="edge25" class="edge">
<title>Category-&gt;Offers</title>
<path fill="none" stroke="#f5f5f5" d="M336.65,-547.32C336.65,-547.32 336.65,-489.55 336.65,-489.55"/>
<polygon fill="#f5f5f5" stroke="#f5f5f5" points="340.15,-489.55 336.65,-479.55 333.15,-489.55 340.15,-489.55"/>
<text xml:space="preserve" text-anchor="middle" x="349.42" y="-509.79" font-family="Inter" font-size="10.00" fill="#f5f5f5">Offers</text>
</g>
<!-- Scripts -->
<g id="node24" class="node">
<title>Scripts</title>
<path fill="#2a2a2a" stroke="#a1a1aa" d="M455.16,-477.79C455.16,-477.79 412.13,-477.79 412.13,-477.79 406.13,-477.79 400.13,-471.79 400.13,-465.79 400.13,-465.79 400.13,-453.79 400.13,-453.79 400.13,-447.79 406.13,-441.79 412.13,-441.79 412.13,-441.79 455.16,-441.79 455.16,-441.79 461.16,-441.79 467.16,-447.79 467.16,-453.79 467.16,-453.79 467.16,-465.79 467.16,-465.79 467.16,-471.79 461.16,-477.79 455.16,-477.79"/>
<text xml:space="preserve" text-anchor="middle" x="433.65" y="-456.49" font-family="Inter" font-size="11.00" fill="#f5f5f5">DM Scripts</text>
</g>
<!-- Category&#45;&gt;Scripts -->
<g id="edge26" class="edge">
<title>Category-&gt;Scripts</title>
<path fill="none" stroke="#f5f5f5" d="M405.99,-563.95C405.99,-563.95 405.99,-489.42 405.99,-489.42"/>
<polygon fill="#f5f5f5" stroke="#f5f5f5" points="409.49,-489.42 405.99,-479.42 402.49,-489.42 409.49,-489.42"/>
<text xml:space="preserve" text-anchor="middle" x="432.54" y="-509.79" font-family="Inter" font-size="10.00" fill="#f5f5f5">Scripts</text>
</g>
<!-- CopyAsset -->
<g id="node25" class="node">
<title>CopyAsset</title>
<path fill="#2a2a2a" stroke="#a1a1aa" d="M308.16,-347.79C308.16,-347.79 265.13,-347.79 265.13,-347.79 259.13,-347.79 253.13,-341.79 253.13,-335.79 253.13,-335.79 253.13,-323.79 253.13,-323.79 253.13,-317.79 259.13,-311.79 265.13,-311.79 265.13,-311.79 308.16,-311.79 308.16,-311.79 314.16,-311.79 320.16,-317.79 320.16,-323.79 320.16,-323.79 320.16,-335.79 320.16,-335.79 320.16,-341.79 314.16,-347.79 308.16,-347.79"/>
<text xml:space="preserve" text-anchor="middle" x="286.65" y="-326.49" font-family="Inter" font-size="11.00" fill="#f5f5f5">Copy Asset</text>
</g>
<!-- Hooks&#45;&gt;CopyAsset -->
<g id="edge27" class="edge">
<title>Hooks-&gt;CopyAsset</title>
<path fill="none" stroke="#f5f5f5" d="M176.1,-441.47C176.1,-405.69 176.1,-330 176.1,-330 176.1,-330 241.36,-330 241.36,-330"/>
<polygon fill="#f5f5f5" stroke="#f5f5f5" points="241.36,-333.5 251.36,-330 241.36,-326.5 241.36,-333.5"/>
</g>
<!-- CTAs&#45;&gt;CopyAsset -->
<g id="edge28" class="edge">
<title>CTAs-&gt;CopyAsset</title>
<path fill="none" stroke="#f5f5f5" d="M263.39,-441.44C263.39,-441.44 263.39,-359.56 263.39,-359.56"/>
<polygon fill="#f5f5f5" stroke="#f5f5f5" points="266.89,-359.56 263.39,-349.56 259.89,-359.56 266.89,-359.56"/>
</g>
<!-- Offers&#45;&gt;CopyAsset -->
<g id="edge29" class="edge">
<title>Offers-&gt;CopyAsset</title>
<path fill="none" stroke="#f5f5f5" d="M313.15,-441.44C313.15,-441.44 313.15,-359.56 313.15,-359.56"/>
<polygon fill="#f5f5f5" stroke="#f5f5f5" points="316.65,-359.56 313.15,-349.56 309.65,-359.56 316.65,-359.56"/>
</g>
<!-- Scripts&#45;&gt;CopyAsset -->
<g id="edge30" class="edge">
<title>Scripts-&gt;CopyAsset</title>
<path fill="none" stroke="#f5f5f5" d="M414.15,-441.41C414.15,-436.24 414.15,-432 414.15,-432 414.15,-432 316.66,-432 316.66,-432 316.66,-432 316.66,-359.57 316.66,-359.57"/>
<polygon fill="#f5f5f5" stroke="#f5f5f5" points="320.16,-359.57 316.66,-349.57 313.16,-359.57 320.16,-359.57"/>
</g>
<!-- Copied -->
<g id="node43" class="node">
<title>Copied</title>
<ellipse fill="#2a2a2a" stroke="#a1a1aa" cx="286.65" cy="-184.23" rx="29.56" ry="29.56"/>
<ellipse fill="none" stroke="#a1a1aa" cx="286.65" cy="-184.23" rx="33.56" ry="33.56"/>
<text xml:space="preserve" text-anchor="middle" x="286.65" y="-180.93" font-family="Inter" font-size="11.00" fill="#f5f5f5">Copied</text>
</g>
<!-- CopyAsset&#45;&gt;Copied -->
<g id="edge50" class="edge">
<title>CopyAsset-&gt;Copied</title>
<path fill="none" stroke="#f5f5f5" d="M286.65,-311.35C286.65,-311.35 286.65,-229.55 286.65,-229.55"/>
<polygon fill="#f5f5f5" stroke="#f5f5f5" points="290.15,-229.55 286.65,-219.55 283.15,-229.55 290.15,-229.55"/>
</g>
<!-- CreateMagnet -->
<g id="node27" class="node">
<title>CreateMagnet</title>
<path fill="#2a2a2a" stroke="#a1a1aa" d="M584.18,-583.79C584.18,-583.79 527.12,-583.79 527.12,-583.79 521.12,-583.79 515.12,-577.79 515.12,-571.79 515.12,-571.79 515.12,-559.79 515.12,-559.79 515.12,-553.79 521.12,-547.79 527.12,-547.79 527.12,-547.79 584.18,-547.79 584.18,-547.79 590.18,-547.79 596.18,-553.79 596.18,-559.79 596.18,-559.79 596.18,-571.79 596.18,-571.79 596.18,-577.79 590.18,-583.79 584.18,-583.79"/>
<text xml:space="preserve" text-anchor="middle" x="555.65" y="-562.49" font-family="Inter" font-size="11.00" fill="#f5f5f5">Create Magnet</text>
</g>
<!-- LeadHub&#45;&gt;CreateMagnet -->
<g id="edge32" class="edge">
<title>LeadHub-&gt;CreateMagnet</title>
<path fill="none" stroke="#f5f5f5" d="M555.65,-642.47C555.65,-642.47 555.65,-595.56 555.65,-595.56"/>
<polygon fill="#f5f5f5" stroke="#f5f5f5" points="559.15,-595.56 555.65,-585.56 552.15,-595.56 559.15,-595.56"/>
</g>
<!-- MagnetEditor -->
<g id="node28" class="node">
<title>MagnetEditor</title>
<path fill="#2a2a2a" stroke="#a1a1aa" d="M595.94,-477.79C595.94,-477.79 515.36,-477.79 515.36,-477.79 509.36,-477.79 503.36,-471.79 503.36,-465.79 503.36,-465.79 503.36,-453.79 503.36,-453.79 503.36,-447.79 509.36,-441.79 515.36,-441.79 515.36,-441.79 595.94,-441.79 595.94,-441.79 601.94,-441.79 607.94,-447.79 607.94,-453.79 607.94,-453.79 607.94,-465.79 607.94,-465.79 607.94,-471.79 601.94,-477.79 595.94,-477.79"/>
<text xml:space="preserve" text-anchor="middle" x="555.65" y="-456.49" font-family="Inter" font-size="11.00" fill="#f5f5f5">Lead Magnet Editor</text>
</g>
<!-- CreateMagnet&#45;&gt;MagnetEditor -->
<g id="edge33" class="edge">
<title>CreateMagnet-&gt;MagnetEditor</title>
<path fill="none" stroke="#f5f5f5" d="M555.65,-547.32C555.65,-547.32 555.65,-489.55 555.65,-489.55"/>
<polygon fill="#f5f5f5" stroke="#f5f5f5" points="559.15,-489.55 555.65,-479.55 552.15,-489.55 559.15,-489.55"/>
</g>
<!-- AddPage -->
<g id="node29" class="node">
<title>AddPage</title>
<path fill="#2a2a2a" stroke="#a1a1aa" d="M430.19,-347.79C430.19,-347.79 395.11,-347.79 395.11,-347.79 389.11,-347.79 383.11,-341.79 383.11,-335.79 383.11,-335.79 383.11,-323.79 383.11,-323.79 383.11,-317.79 389.11,-311.79 395.11,-311.79 395.11,-311.79 430.19,-311.79 430.19,-311.79 436.19,-311.79 442.19,-317.79 442.19,-323.79 442.19,-323.79 442.19,-335.79 442.19,-335.79 442.19,-341.79 436.19,-347.79 430.19,-347.79"/>
<text xml:space="preserve" text-anchor="middle" x="412.65" y="-326.49" font-family="Inter" font-size="11.00" fill="#f5f5f5">Add Page</text>
</g>
<!-- MagnetEditor&#45;&gt;AddPage -->
<g id="edge34" class="edge">
<title>MagnetEditor-&gt;AddPage</title>
<path fill="none" stroke="#f5f5f5" d="M521.22,-441.34C521.22,-431.74 521.22,-422 521.22,-422 521.22,-422 428.17,-422 428.17,-422 428.17,-422 428.17,-359.52 428.17,-359.52"/>
<polygon fill="#f5f5f5" stroke="#f5f5f5" points="431.67,-359.52 428.17,-349.52 424.67,-359.52 431.67,-359.52"/>
</g>
<!-- WriteContent -->
<g id="node30" class="node">
<title>WriteContent</title>
<path fill="#2a2a2a" stroke="#a1a1aa" d="M544.96,-347.79C544.96,-347.79 490.34,-347.79 490.34,-347.79 484.34,-347.79 478.34,-341.79 478.34,-335.79 478.34,-335.79 478.34,-323.79 478.34,-323.79 478.34,-317.79 484.34,-311.79 490.34,-311.79 490.34,-311.79 544.96,-311.79 544.96,-311.79 550.96,-311.79 556.96,-317.79 556.96,-323.79 556.96,-323.79 556.96,-335.79 556.96,-335.79 556.96,-341.79 550.96,-347.79 544.96,-347.79"/>
<text xml:space="preserve" text-anchor="middle" x="517.65" y="-326.49" font-family="Inter" font-size="11.00" fill="#f5f5f5">Write Content</text>
</g>
<!-- MagnetEditor&#45;&gt;WriteContent -->
<g id="edge35" class="edge">
<title>MagnetEditor-&gt;WriteContent</title>
<path fill="none" stroke="#f5f5f5" d="M539.09,-441.44C539.09,-441.44 539.09,-359.56 539.09,-359.56"/>
<polygon fill="#f5f5f5" stroke="#f5f5f5" points="542.59,-359.56 539.09,-349.56 535.59,-359.56 542.59,-359.56"/>
</g>
<!-- SaveMagnet -->
<g id="node31" class="node">
<title>SaveMagnet</title>
<path fill="#2a2a2a" stroke="#a1a1aa" d="M536.71,-202.23C536.71,-202.23 498.58,-202.23 498.58,-202.23 492.58,-202.23 486.58,-196.23 486.58,-190.23 486.58,-190.23 486.58,-178.23 486.58,-178.23 486.58,-172.23 492.58,-166.23 498.58,-166.23 498.58,-166.23 536.71,-166.23 536.71,-166.23 542.71,-166.23 548.71,-172.23 548.71,-178.23 548.71,-178.23 548.71,-190.23 548.71,-190.23 548.71,-196.23 542.71,-202.23 536.71,-202.23"/>
<text xml:space="preserve" text-anchor="middle" x="517.65" y="-180.93" font-family="Inter" font-size="11.00" fill="#f5f5f5">Auto Save</text>
</g>
<!-- WriteContent&#45;&gt;SaveMagnet -->
<g id="edge36" class="edge">
<title>WriteContent-&gt;SaveMagnet</title>
<path fill="none" stroke="#f5f5f5" d="M517.65,-311.35C517.65,-311.35 517.65,-214.03 517.65,-214.03"/>
<polygon fill="#f5f5f5" stroke="#f5f5f5" points="521.15,-214.03 517.65,-204.03 514.15,-214.03 521.15,-214.03"/>
</g>
<!-- SaveMagnet&#45;&gt;Saved -->
<g id="edge48" class="edge">
<title>SaveMagnet-&gt;Saved</title>
<path fill="none" stroke="#f5f5f5" d="M517.65,-165.85C517.65,-165.85 517.65,-103.54 517.65,-103.54"/>
<polygon fill="#f5f5f5" stroke="#f5f5f5" points="521.15,-103.54 517.65,-93.54 514.15,-103.54 521.15,-103.54"/>
</g>
<!-- Draft -->
<g id="node33" class="node">
<title>Draft</title>
<path fill="#2a2a2a" stroke="#a1a1aa" d="M718.04,-583.79C718.04,-583.79 665.25,-583.79 665.25,-583.79 659.25,-583.79 653.25,-577.79 653.25,-571.79 653.25,-571.79 653.25,-559.79 653.25,-559.79 653.25,-553.79 659.25,-547.79 665.25,-547.79 665.25,-547.79 718.04,-547.79 718.04,-547.79 724.04,-547.79 730.04,-553.79 730.04,-559.79 730.04,-559.79 730.04,-571.79 730.04,-571.79 730.04,-577.79 724.04,-583.79 718.04,-583.79"/>
<text xml:space="preserve" text-anchor="middle" x="691.65" y="-562.49" font-family="Inter" font-size="11.00" fill="#f5f5f5">Draft Content</text>
</g>
<!-- WriterHub&#45;&gt;Draft -->
<g id="edge38" class="edge">
<title>WriterHub-&gt;Draft</title>
<path fill="none" stroke="#f5f5f5" d="M691.65,-642.47C691.65,-642.47 691.65,-595.56 691.65,-595.56"/>
<polygon fill="#f5f5f5" stroke="#f5f5f5" points="695.15,-595.56 691.65,-585.56 688.15,-595.56 695.15,-595.56"/>
</g>
<!-- Sidebar -->
<g id="node34" class="node">
<title>Sidebar</title>
<path fill="#2a2a2a" stroke="#a1a1aa" d="M728.97,-477.79C728.97,-477.79 656.32,-477.79 656.32,-477.79 650.32,-477.79 644.32,-471.79 644.32,-465.79 644.32,-465.79 644.32,-453.79 644.32,-453.79 644.32,-447.79 650.32,-441.79 656.32,-441.79 656.32,-441.79 728.97,-441.79 728.97,-441.79 734.97,-441.79 740.97,-447.79 740.97,-453.79 740.97,-453.79 740.97,-465.79 740.97,-465.79 740.97,-471.79 734.97,-477.79 728.97,-477.79"/>
<text xml:space="preserve" text-anchor="middle" x="692.65" y="-456.49" font-family="Inter" font-size="11.00" fill="#f5f5f5">Open Meta Panels</text>
</g>
<!-- Draft&#45;&gt;Sidebar -->
<g id="edge39" class="edge">
<title>Draft-&gt;Sidebar</title>
<path fill="none" stroke="#f5f5f5" d="M691.65,-547.32C691.65,-547.32 691.65,-489.55 691.65,-489.55"/>
<polygon fill="#f5f5f5" stroke="#f5f5f5" points="695.15,-489.55 691.65,-479.55 688.15,-489.55 695.15,-489.55"/>
</g>
<!-- SavePost -->
<g id="node37" class="node">
<title>SavePost</title>
<path fill="#2a2a2a" stroke="#a1a1aa" d="M863.89,-412.79C863.89,-412.79 767.41,-412.79 767.41,-412.79 761.41,-412.79 755.41,-406.79 755.41,-400.79 755.41,-400.79 755.41,-388.79 755.41,-388.79 755.41,-382.79 761.41,-376.79 767.41,-376.79 767.41,-376.79 863.89,-376.79 863.89,-376.79 869.89,-376.79 875.89,-382.79 875.89,-388.79 875.89,-388.79 875.89,-400.79 875.89,-400.79 875.89,-406.79 869.89,-412.79 863.89,-412.79"/>
<text xml:space="preserve" text-anchor="middle" x="815.65" y="-391.49" font-family="Inter" font-size="11.00" fill="#f5f5f5">Save Universal Content</text>
</g>
<!-- Draft&#45;&gt;SavePost -->
<g id="edge42" class="edge">
<title>Draft-&gt;SavePost</title>
<path fill="none" stroke="#f5f5f5" d="M730.3,-566C740.24,-566 748.19,-566 748.19,-566 748.19,-566 748.19,-395 748.19,-395 748.19,-395 748.89,-395 748.89,-395"/>
<polygon fill="#f5f5f5" stroke="#f5f5f5" points="743.64,-398.5 753.64,-395 743.64,-391.5 743.64,-398.5"/>
</g>
<!-- Schedule -->
<g id="node35" class="node">
<title>Schedule</title>
<path fill="#2a2a2a" stroke="#a1a1aa" d="M654.21,-347.79C654.21,-347.79 605.08,-347.79 605.08,-347.79 599.08,-347.79 593.08,-341.79 593.08,-335.79 593.08,-335.79 593.08,-323.79 593.08,-323.79 593.08,-317.79 599.08,-311.79 605.08,-311.79 605.08,-311.79 654.21,-311.79 654.21,-311.79 660.21,-311.79 666.21,-317.79 666.21,-323.79 666.21,-323.79 666.21,-335.79 666.21,-335.79 666.21,-341.79 660.21,-347.79 654.21,-347.79"/>
<text xml:space="preserve" text-anchor="middle" x="629.65" y="-326.49" font-family="Inter" font-size="11.00" fill="#f5f5f5">Set Schedule</text>
</g>
<!-- Sidebar&#45;&gt;Schedule -->
<g id="edge40" class="edge">
<title>Sidebar-&gt;Schedule</title>
<path fill="none" stroke="#f5f5f5" d="M655.27,-441.44C655.27,-441.44 655.27,-359.56 655.27,-359.56"/>
<polygon fill="#f5f5f5" stroke="#f5f5f5" points="658.77,-359.56 655.27,-349.56 651.77,-359.56 658.77,-359.56"/>
</g>
<!-- Tags -->
<g id="node36" class="node">
<title>Tags</title>
<path fill="#2a2a2a" stroke="#a1a1aa" d="M749.19,-347.79C749.19,-347.79 714.11,-347.79 714.11,-347.79 708.11,-347.79 702.11,-341.79 702.11,-335.79 702.11,-335.79 702.11,-323.79 702.11,-323.79 702.11,-317.79 708.11,-311.79 714.11,-311.79 714.11,-311.79 749.19,-311.79 749.19,-311.79 755.19,-311.79 761.19,-317.79 761.19,-323.79 761.19,-323.79 761.19,-335.79 761.19,-335.79 761.19,-341.79 755.19,-347.79 749.19,-347.79"/>
<text xml:space="preserve" text-anchor="middle" x="731.65" y="-326.49" font-family="Inter" font-size="11.00" fill="#f5f5f5">Add Tags</text>
</g>
<!-- Sidebar&#45;&gt;Tags -->
<g id="edge41" class="edge">
<title>Sidebar-&gt;Tags</title>
<path fill="none" stroke="#f5f5f5" d="M721.54,-441.44C721.54,-441.44 721.54,-359.56 721.54,-359.56"/>
<polygon fill="#f5f5f5" stroke="#f5f5f5" points="725.04,-359.56 721.54,-349.56 718.04,-359.56 725.04,-359.56"/>
</g>
<!-- SavePost&#45;&gt;Saved -->
<g id="edge49" class="edge">
<title>SavePost-&gt;Saved</title>
<path fill="none" stroke="#f5f5f5" d="M818.54,-376.53C818.54,-304.76 818.54,-46 818.54,-46 818.54,-46 575.19,-46 575.19,-46"/>
<polygon fill="#f5f5f5" stroke="#f5f5f5" points="575.19,-42.5 565.19,-46 575.19,-49.5 575.19,-42.5"/>
</g>
<!-- CreateProject -->
<g id="node39" class="node">
<title>CreateProject</title>
<path fill="#2a2a2a" stroke="#a1a1aa" d="M832.95,-583.79C832.95,-583.79 778.34,-583.79 778.34,-583.79 772.34,-583.79 766.34,-577.79 766.34,-571.79 766.34,-571.79 766.34,-559.79 766.34,-559.79 766.34,-553.79 772.34,-547.79 778.34,-547.79 778.34,-547.79 832.95,-547.79 832.95,-547.79 838.95,-547.79 844.95,-553.79 844.95,-559.79 844.95,-559.79 844.95,-571.79 844.95,-571.79 844.95,-577.79 838.95,-583.79 832.95,-583.79"/>
<text xml:space="preserve" text-anchor="middle" x="805.65" y="-562.49" font-family="Inter" font-size="11.00" fill="#f5f5f5">Create Project</text>
</g>
<!-- ProjectsHub&#45;&gt;CreateProject -->
<g id="edge44" class="edge">
<title>ProjectsHub-&gt;CreateProject</title>
<path fill="none" stroke="#f5f5f5" d="M805.65,-642.47C805.65,-642.47 805.65,-595.56 805.65,-595.56"/>
<polygon fill="#f5f5f5" stroke="#f5f5f5" points="809.15,-595.56 805.65,-585.56 802.15,-595.56 809.15,-595.56"/>
</g>
<!-- ViewProject -->
<g id="node40" class="node">
<title>ViewProject</title>
<path fill="#2a2a2a" stroke="#a1a1aa" d="M942.51,-583.79C942.51,-583.79 892.78,-583.79 892.78,-583.79 886.78,-583.79 880.78,-577.79 880.78,-571.79 880.78,-571.79 880.78,-559.79 880.78,-559.79 880.78,-553.79 886.78,-547.79 892.78,-547.79 892.78,-547.79 942.51,-547.79 942.51,-547.79 948.51,-547.79 954.51,-553.79 954.51,-559.79 954.51,-559.79 954.51,-571.79 954.51,-571.79 954.51,-577.79 948.51,-583.79 942.51,-583.79"/>
<text xml:space="preserve" text-anchor="middle" x="917.65" y="-562.49" font-family="Inter" font-size="11.00" fill="#f5f5f5">View Project</text>
</g>
<!-- ProjectsHub&#45;&gt;ViewProject -->
<g id="edge45" class="edge">
<title>ProjectsHub-&gt;ViewProject</title>
<path fill="none" stroke="#f5f5f5" d="M842.63,-661C875.25,-661 917.65,-661 917.65,-661 917.65,-661 917.65,-595.66 917.65,-595.66"/>
<polygon fill="#f5f5f5" stroke="#f5f5f5" points="921.15,-595.66 917.65,-585.66 914.15,-595.66 921.15,-595.66"/>
</g>
<!-- LinkContent -->
<g id="node41" class="node">
<title>LinkContent</title>
<path fill="#2a2a2a" stroke="#a1a1aa" d="M959.01,-477.79C959.01,-477.79 876.28,-477.79 876.28,-477.79 870.28,-477.79 864.28,-471.79 864.28,-465.79 864.28,-465.79 864.28,-453.79 864.28,-453.79 864.28,-447.79 870.28,-441.79 876.28,-441.79 876.28,-441.79 959.01,-441.79 959.01,-441.79 965.01,-441.79 971.01,-447.79 971.01,-453.79 971.01,-453.79 971.01,-465.79 971.01,-465.79 971.01,-471.79 965.01,-477.79 959.01,-477.79"/>
<text xml:space="preserve" text-anchor="middle" x="917.65" y="-456.49" font-family="Inter" font-size="11.00" fill="#f5f5f5">Link Tasks &amp; Drafts</text>
</g>
<!-- ViewProject&#45;&gt;LinkContent -->
<g id="edge46" class="edge">
<title>ViewProject-&gt;LinkContent</title>
<path fill="none" stroke="#f5f5f5" d="M917.65,-547.32C917.65,-547.32 917.65,-489.55 917.65,-489.55"/>
<polygon fill="#f5f5f5" stroke="#f5f5f5" points="921.15,-489.55 917.65,-479.55 914.15,-489.55 921.15,-489.55"/>
</g>
</g>
</svg>